<mxfile host="app.diagrams.net" agent="Mozilla/5.0 (Windows NT 10.0; Win64; x64) AppleWebKit/537.36 (KHTML, like Gecko) Chrome/135.0.0.0 Safari/537.36" version="26.2.14">
  <diagram name="第 1 页" id="V-AEi6vko_xVjehVkjKq">
    <mxGraphModel dx="1303" dy="745" grid="1" gridSize="10" guides="1" tooltips="1" connect="1" arrows="1" fold="1" page="1" pageScale="1" pageWidth="827" pageHeight="1169" math="0" shadow="0">
      <root>
        <mxCell id="0" />
        <mxCell id="1" parent="0" />
        <mxCell id="FtVox0BPLqf3VctLUv7m-6" value="&lt;font style=&quot;font-size: 14px;&quot; face=&quot;宋体&quot;&gt;访问层&lt;/font&gt;" style="rounded=1;whiteSpace=wrap;html=1;" vertex="1" parent="1">
          <mxGeometry x="100" y="64" width="80" height="40" as="geometry" />
        </mxCell>
        <mxCell id="FtVox0BPLqf3VctLUv7m-11" value="&lt;font face=&quot;宋体&quot;&gt;&lt;span style=&quot;font-size: 14px;&quot;&gt;交互层&lt;/span&gt;&lt;/font&gt;" style="rounded=1;whiteSpace=wrap;html=1;" vertex="1" parent="1">
          <mxGeometry x="100" y="240" width="80" height="40" as="geometry" />
        </mxCell>
        <mxCell id="FtVox0BPLqf3VctLUv7m-16" value="" style="rounded=1;whiteSpace=wrap;html=1;" vertex="1" parent="1">
          <mxGeometry x="190" y="150" width="450" height="60" as="geometry" />
        </mxCell>
        <mxCell id="FtVox0BPLqf3VctLUv7m-17" value="Vue.js" style="rounded=1;whiteSpace=wrap;html=1;align=center;verticalAlign=middle;fontFamily=宋体;fontSize=15;fontColor=default;fillColor=none;gradientColor=none;" vertex="1" parent="1">
          <mxGeometry x="200" y="160" width="70" height="40" as="geometry" />
        </mxCell>
        <mxCell id="FtVox0BPLqf3VctLUv7m-18" value="uni-app" style="rounded=1;whiteSpace=wrap;html=1;align=center;verticalAlign=middle;fontFamily=宋体;fontSize=15;fontColor=default;fillColor=none;gradientColor=none;" vertex="1" parent="1">
          <mxGeometry x="280" y="160" width="70" height="40" as="geometry" />
        </mxCell>
        <mxCell id="FtVox0BPLqf3VctLUv7m-21" value="" style="endArrow=none;dashed=1;html=1;dashPattern=1 3;strokeWidth=2;rounded=0;fontFamily=宋体;fontSize=14;fontColor=default;" edge="1" parent="1">
          <mxGeometry width="50" height="50" relative="1" as="geometry">
            <mxPoint x="95" y="220" as="sourcePoint" />
            <mxPoint x="655" y="220" as="targetPoint" />
          </mxGeometry>
        </mxCell>
        <mxCell id="FtVox0BPLqf3VctLUv7m-22" value="" style="group" vertex="1" connectable="0" parent="1">
          <mxGeometry x="190" y="44" width="450" height="80" as="geometry" />
        </mxCell>
        <mxCell id="FtVox0BPLqf3VctLUv7m-1" value="" style="rounded=1;whiteSpace=wrap;html=1;" vertex="1" parent="FtVox0BPLqf3VctLUv7m-22">
          <mxGeometry width="450" height="80" as="geometry" />
        </mxCell>
        <mxCell id="FtVox0BPLqf3VctLUv7m-10" value="" style="group" vertex="1" connectable="0" parent="FtVox0BPLqf3VctLUv7m-22">
          <mxGeometry x="74.34729729729729" y="8.88888888888889" width="328.3783783783784" height="71.11111111111111" as="geometry" />
        </mxCell>
        <mxCell id="FtVox0BPLqf3VctLUv7m-2" value="" style="sketch=0;verticalLabelPosition=bottom;sketch=0;aspect=fixed;html=1;verticalAlign=top;strokeColor=none;fillColor=#000000;align=center;outlineConnect=0;pointerEvents=1;shape=mxgraph.citrix2.mobile;" vertex="1" parent="FtVox0BPLqf3VctLUv7m-10">
          <mxGeometry x="31.46351351351352" width="22.448888888888888" height="44.44444444444445" as="geometry" />
        </mxCell>
        <mxCell id="FtVox0BPLqf3VctLUv7m-4" value="" style="shape=mxgraph.signs.tech.computer;html=1;pointerEvents=1;fillColor=#000000;strokeColor=none;verticalLabelPosition=bottom;verticalAlign=top;align=center;" vertex="1" parent="FtVox0BPLqf3VctLUv7m-10">
          <mxGeometry x="226.05810810810812" width="60.810810810810814" height="44.44444444444445" as="geometry" />
        </mxCell>
        <mxCell id="FtVox0BPLqf3VctLUv7m-8" value="用户端APP" style="text;html=1;align=center;verticalAlign=middle;whiteSpace=wrap;rounded=0;fontFamily=宋体;fontSize=14;fontColor=default;" vertex="1" parent="FtVox0BPLqf3VctLUv7m-10">
          <mxGeometry y="44.44444444444445" width="93.64864864864865" height="26.666666666666668" as="geometry" />
        </mxCell>
        <mxCell id="FtVox0BPLqf3VctLUv7m-9" value="后台管理Web端" style="text;html=1;align=center;verticalAlign=middle;whiteSpace=wrap;rounded=0;fontFamily=宋体;fontSize=14;fontColor=default;" vertex="1" parent="FtVox0BPLqf3VctLUv7m-10">
          <mxGeometry x="197.47702702702705" y="44.44444444444445" width="118.73918918918919" height="26.666666666666668" as="geometry" />
        </mxCell>
        <mxCell id="FtVox0BPLqf3VctLUv7m-23" value="&lt;font style=&quot;font-size: 14px;&quot; face=&quot;宋体&quot;&gt;前端&lt;/font&gt;" style="rounded=1;whiteSpace=wrap;html=1;" vertex="1" parent="1">
          <mxGeometry x="100" y="160" width="80" height="40" as="geometry" />
        </mxCell>
        <mxCell id="FtVox0BPLqf3VctLUv7m-24" value="" style="rounded=1;whiteSpace=wrap;html=1;" vertex="1" parent="1">
          <mxGeometry x="190" y="230" width="450" height="60" as="geometry" />
        </mxCell>
        <mxCell id="FtVox0BPLqf3VctLUv7m-25" value="JWT" style="rounded=1;whiteSpace=wrap;html=1;align=center;verticalAlign=middle;fontFamily=宋体;fontSize=15;fontColor=default;fillColor=none;gradientColor=none;" vertex="1" parent="1">
          <mxGeometry x="390" y="240" width="60" height="40" as="geometry" />
        </mxCell>
        <mxCell id="FtVox0BPLqf3VctLUv7m-26" value="Axios" style="rounded=1;whiteSpace=wrap;html=1;align=center;verticalAlign=middle;fontFamily=宋体;fontSize=15;fontColor=default;fillColor=none;gradientColor=none;" vertex="1" parent="1">
          <mxGeometry x="200" y="240" width="70" height="40" as="geometry" />
        </mxCell>
        <mxCell id="FtVox0BPLqf3VctLUv7m-27" value="vuex" style="rounded=1;whiteSpace=wrap;html=1;align=center;verticalAlign=middle;fontFamily=宋体;fontSize=15;fontColor=default;fillColor=none;gradientColor=none;" vertex="1" parent="1">
          <mxGeometry x="360" y="160" width="50" height="40" as="geometry" />
        </mxCell>
        <mxCell id="FtVox0BPLqf3VctLUv7m-30" value="" style="endArrow=none;dashed=1;html=1;dashPattern=1 3;strokeWidth=2;rounded=0;fontFamily=宋体;fontSize=14;fontColor=default;" edge="1" parent="1">
          <mxGeometry width="50" height="50" relative="1" as="geometry">
            <mxPoint x="100" y="300" as="sourcePoint" />
            <mxPoint x="660" y="300" as="targetPoint" />
          </mxGeometry>
        </mxCell>
        <mxCell id="FtVox0BPLqf3VctLUv7m-31" value="uni.request" style="rounded=1;whiteSpace=wrap;html=1;align=center;verticalAlign=middle;fontFamily=宋体;fontSize=15;fontColor=default;fillColor=none;gradientColor=none;" vertex="1" parent="1">
          <mxGeometry x="280" y="240" width="100" height="40" as="geometry" />
        </mxCell>
        <mxCell id="FtVox0BPLqf3VctLUv7m-32" value="拦截器" style="rounded=1;whiteSpace=wrap;html=1;align=center;verticalAlign=middle;fontFamily=宋体;fontSize=15;fontColor=default;fillColor=none;gradientColor=none;" vertex="1" parent="1">
          <mxGeometry x="460" y="240" width="60" height="40" as="geometry" />
        </mxCell>
        <mxCell id="FtVox0BPLqf3VctLUv7m-34" value="&lt;font face=&quot;宋体&quot;&gt;&lt;span style=&quot;font-size: 14px;&quot;&gt;业务层&lt;/span&gt;&lt;/font&gt;" style="rounded=1;whiteSpace=wrap;html=1;" vertex="1" parent="1">
          <mxGeometry x="100" y="380" width="80" height="40" as="geometry" />
        </mxCell>
        <mxCell id="FtVox0BPLqf3VctLUv7m-35" value="" style="rounded=1;whiteSpace=wrap;html=1;arcSize=6;" vertex="1" parent="1">
          <mxGeometry x="190" y="310" width="450" height="170" as="geometry" />
        </mxCell>
        <mxCell id="FtVox0BPLqf3VctLUv7m-40" value="" style="endArrow=none;dashed=1;html=1;dashPattern=1 3;strokeWidth=2;rounded=0;fontFamily=宋体;fontSize=14;fontColor=default;" edge="1" parent="1">
          <mxGeometry width="50" height="50" relative="1" as="geometry">
            <mxPoint x="100" y="139" as="sourcePoint" />
            <mxPoint x="660" y="139" as="targetPoint" />
          </mxGeometry>
        </mxCell>
        <mxCell id="FtVox0BPLqf3VctLUv7m-43" value="Spring Boot" style="rounded=1;whiteSpace=wrap;html=1;align=center;verticalAlign=middle;fontFamily=宋体;fontSize=15;fontColor=default;fillColor=none;gradientColor=none;" vertex="1" parent="1">
          <mxGeometry x="200" y="320" width="100" height="30" as="geometry" />
        </mxCell>
        <mxCell id="FtVox0BPLqf3VctLUv7m-57" value="后台管理Web端" style="text;html=1;align=center;verticalAlign=middle;whiteSpace=wrap;rounded=0;fontFamily=宋体;fontSize=14;fontColor=default;" vertex="1" parent="1">
          <mxGeometry x="480" y="450" width="121" height="30" as="geometry" />
        </mxCell>
        <mxCell id="FtVox0BPLqf3VctLUv7m-58" value="" style="group" vertex="1" connectable="0" parent="1">
          <mxGeometry x="200" y="360" width="210" height="90" as="geometry" />
        </mxCell>
        <mxCell id="FtVox0BPLqf3VctLUv7m-45" value="" style="rounded=1;whiteSpace=wrap;html=1;align=center;verticalAlign=middle;fontFamily=宋体;fontSize=15;fontColor=default;fillColor=none;gradientColor=none;" vertex="1" parent="FtVox0BPLqf3VctLUv7m-58">
          <mxGeometry width="210" height="90" as="geometry" />
        </mxCell>
        <mxCell id="FtVox0BPLqf3VctLUv7m-46" value="积分商城" style="rounded=1;whiteSpace=wrap;html=1;align=center;verticalAlign=middle;fontFamily=宋体;fontSize=15;fontColor=default;fillColor=none;gradientColor=none;" vertex="1" parent="FtVox0BPLqf3VctLUv7m-58">
          <mxGeometry x="10" y="50" width="90" height="30" as="geometry" />
        </mxCell>
        <mxCell id="FtVox0BPLqf3VctLUv7m-47" value="洗衣服务" style="rounded=1;whiteSpace=wrap;html=1;align=center;verticalAlign=middle;fontFamily=宋体;fontSize=15;fontColor=default;fillColor=none;gradientColor=none;" vertex="1" parent="FtVox0BPLqf3VctLUv7m-58">
          <mxGeometry x="110" y="10" width="90" height="30" as="geometry" />
        </mxCell>
        <mxCell id="FtVox0BPLqf3VctLUv7m-48" value="账号管理" style="rounded=1;whiteSpace=wrap;html=1;align=center;verticalAlign=middle;fontFamily=宋体;fontSize=15;fontColor=default;fillColor=none;gradientColor=none;" vertex="1" parent="FtVox0BPLqf3VctLUv7m-58">
          <mxGeometry x="10" y="10" width="90" height="30" as="geometry" />
        </mxCell>
        <mxCell id="FtVox0BPLqf3VctLUv7m-49" value="个人中心" style="rounded=1;whiteSpace=wrap;html=1;align=center;verticalAlign=middle;fontFamily=宋体;fontSize=15;fontColor=default;fillColor=none;gradientColor=none;" vertex="1" parent="FtVox0BPLqf3VctLUv7m-58">
          <mxGeometry x="110" y="50" width="90" height="30" as="geometry" />
        </mxCell>
        <mxCell id="FtVox0BPLqf3VctLUv7m-59" value="" style="group" vertex="1" connectable="0" parent="1">
          <mxGeometry x="420" y="360" width="210" height="90" as="geometry" />
        </mxCell>
        <mxCell id="FtVox0BPLqf3VctLUv7m-60" value="" style="rounded=1;whiteSpace=wrap;html=1;align=center;verticalAlign=middle;fontFamily=宋体;fontSize=15;fontColor=default;fillColor=none;gradientColor=none;" vertex="1" parent="FtVox0BPLqf3VctLUv7m-59">
          <mxGeometry width="210" height="90" as="geometry" />
        </mxCell>
        <mxCell id="FtVox0BPLqf3VctLUv7m-61" value="信息管理" style="rounded=1;whiteSpace=wrap;html=1;align=center;verticalAlign=middle;fontFamily=宋体;fontSize=15;fontColor=default;fillColor=none;gradientColor=none;" vertex="1" parent="FtVox0BPLqf3VctLUv7m-59">
          <mxGeometry x="10" y="50" width="90" height="30" as="geometry" />
        </mxCell>
        <mxCell id="FtVox0BPLqf3VctLUv7m-62" value="机器管理" style="rounded=1;whiteSpace=wrap;html=1;align=center;verticalAlign=middle;fontFamily=宋体;fontSize=15;fontColor=default;fillColor=none;gradientColor=none;" vertex="1" parent="FtVox0BPLqf3VctLUv7m-59">
          <mxGeometry x="110" y="10" width="90" height="30" as="geometry" />
        </mxCell>
        <mxCell id="FtVox0BPLqf3VctLUv7m-63" value="账号管理" style="rounded=1;whiteSpace=wrap;html=1;align=center;verticalAlign=middle;fontFamily=宋体;fontSize=15;fontColor=default;fillColor=none;gradientColor=none;" vertex="1" parent="FtVox0BPLqf3VctLUv7m-59">
          <mxGeometry x="10" y="10" width="90" height="30" as="geometry" />
        </mxCell>
        <mxCell id="FtVox0BPLqf3VctLUv7m-73" value="用户端APP" style="text;html=1;align=center;verticalAlign=middle;whiteSpace=wrap;rounded=0;fontFamily=宋体;fontSize=14;fontColor=default;" vertex="1" parent="1">
          <mxGeometry x="259" y="450" width="91" height="30" as="geometry" />
        </mxCell>
        <mxCell id="FtVox0BPLqf3VctLUv7m-74" value="" style="endArrow=none;dashed=1;html=1;dashPattern=1 3;strokeWidth=2;rounded=0;fontFamily=宋体;fontSize=14;fontColor=default;" edge="1" parent="1">
          <mxGeometry width="50" height="50" relative="1" as="geometry">
            <mxPoint x="105" y="490" as="sourcePoint" />
            <mxPoint x="665" y="490" as="targetPoint" />
          </mxGeometry>
        </mxCell>
        <mxCell id="FtVox0BPLqf3VctLUv7m-75" value="&lt;font face=&quot;宋体&quot;&gt;&lt;span style=&quot;font-size: 14px;&quot;&gt;持久层&lt;/span&gt;&lt;/font&gt;" style="rounded=1;whiteSpace=wrap;html=1;" vertex="1" parent="1">
          <mxGeometry x="100" y="510" width="80" height="40" as="geometry" />
        </mxCell>
        <mxCell id="FtVox0BPLqf3VctLUv7m-81" value="" style="rounded=1;whiteSpace=wrap;html=1;" vertex="1" parent="1">
          <mxGeometry x="195" y="500" width="450" height="60" as="geometry" />
        </mxCell>
        <mxCell id="FtVox0BPLqf3VctLUv7m-82" value="MyBatis" style="rounded=1;whiteSpace=wrap;html=1;align=center;verticalAlign=middle;fontFamily=宋体;fontSize=15;fontColor=default;fillColor=none;gradientColor=none;" vertex="1" parent="1">
          <mxGeometry x="205" y="510" width="70" height="40" as="geometry" />
        </mxCell>
        <mxCell id="FtVox0BPLqf3VctLUv7m-83" value="MyBatis-Plus" style="rounded=1;whiteSpace=wrap;html=1;align=center;verticalAlign=middle;fontFamily=宋体;fontSize=15;fontColor=default;fillColor=none;gradientColor=none;" vertex="1" parent="1">
          <mxGeometry x="285" y="510" width="105" height="40" as="geometry" />
        </mxCell>
        <mxCell id="FtVox0BPLqf3VctLUv7m-84" value="" style="endArrow=none;dashed=1;html=1;dashPattern=1 3;strokeWidth=2;rounded=0;fontFamily=宋体;fontSize=14;fontColor=default;" edge="1" parent="1">
          <mxGeometry width="50" height="50" relative="1" as="geometry">
            <mxPoint x="105" y="570" as="sourcePoint" />
            <mxPoint x="665" y="570" as="targetPoint" />
          </mxGeometry>
        </mxCell>
        <mxCell id="FtVox0BPLqf3VctLUv7m-85" value="&lt;font face=&quot;宋体&quot;&gt;&lt;span style=&quot;font-size: 14px;&quot;&gt;数据库&lt;/span&gt;&lt;/font&gt;" style="rounded=1;whiteSpace=wrap;html=1;" vertex="1" parent="1">
          <mxGeometry x="100" y="595" width="80" height="40" as="geometry" />
        </mxCell>
        <mxCell id="FtVox0BPLqf3VctLUv7m-88" value="" style="rounded=1;whiteSpace=wrap;html=1;" vertex="1" parent="1">
          <mxGeometry x="195" y="585" width="450" height="60" as="geometry" />
        </mxCell>
        <mxCell id="FtVox0BPLqf3VctLUv7m-89" value="MySQL" style="rounded=1;whiteSpace=wrap;html=1;align=center;verticalAlign=middle;fontFamily=宋体;fontSize=15;fontColor=default;fillColor=none;gradientColor=none;" vertex="1" parent="1">
          <mxGeometry x="205" y="595" width="70" height="40" as="geometry" />
        </mxCell>
        <mxCell id="FtVox0BPLqf3VctLUv7m-90" value="Redis" style="rounded=1;whiteSpace=wrap;html=1;align=center;verticalAlign=middle;fontFamily=宋体;fontSize=15;fontColor=default;fillColor=none;gradientColor=none;" vertex="1" parent="1">
          <mxGeometry x="285" y="595" width="65" height="40" as="geometry" />
        </mxCell>
        <mxCell id="FtVox0BPLqf3VctLUv7m-91" value="" style="endArrow=none;dashed=1;html=1;dashPattern=1 3;strokeWidth=2;rounded=0;fontFamily=宋体;fontSize=14;fontColor=default;" edge="1" parent="1">
          <mxGeometry width="50" height="50" relative="1" as="geometry">
            <mxPoint x="105" y="655" as="sourcePoint" />
            <mxPoint x="665" y="655" as="targetPoint" />
          </mxGeometry>
        </mxCell>
        <mxCell id="FtVox0BPLqf3VctLUv7m-93" value="阿里云OSS" style="rounded=1;whiteSpace=wrap;html=1;align=center;verticalAlign=middle;fontFamily=宋体;fontSize=15;fontColor=default;fillColor=none;gradientColor=none;" vertex="1" parent="1">
          <mxGeometry x="360" y="595" width="90" height="40" as="geometry" />
        </mxCell>
      </root>
    </mxGraphModel>
  </diagram>
</mxfile>
